<?xml version="1.0" encoding="UTF-8"?>
<svg
        xmlns="http://www.w3.org/2000/svg"
        viewBox="0 0 24 24"
        width="24"
        height="24"
        fill="white"
>
    <path d="m8.528 3.47 2.99 2.656a.5.5 0 0 1-.333.874H7.702a2 2 0 0 1-1.25-.438l-.318-.255C4.764 5.211 5.539 3 7.294 3c.455 0 .894.167 1.234.47m6.944 0-2.99 2.656a.5.5 0 0 0 .333.874h3.483a2 2 0 0 0 1.25-.438l.318-.255C19.236 5.211 18.461 3 16.706 3c-.455 0-.894.167-1.234.47M4 10.5A2.5 2.5 0 0 1 6.5 8H11v12H6.5A2.5 2.5 0 0 1 4 17.5zm9 9.5V8h4.5a2.5 2.5 0 0 1 2.5 2.5v7a2.5 2.5 0 0 1-2.5 2.5z"/>
</svg>
